HIERARCHY
ROOT hip
{
  OFFSET 0 0 0
  CHANNELS 6 Xposition Yposition Zposition Zrotation Yrotation Xrotation
  JOINT abdomen
  {
    OFFSET 0 20.6881 -0.73152
    CHANNELS 3 Zrotation Xrotation Yrotation
    JOINT chest
    {
      OFFSET 0 11.7043 -0.48768
      CHANNELS 3 Zrotation Xrotation Yrotation
      JOINT neck
      {
        OFFSET 0 22.1894 -2.19456
        CHANNELS 3 Zrotation Xrotation Yrotation
        JOINT head
        {
          OFFSET -0.24384 7.07133 1.2192
          CHANNELS 3 Zrotation Xrotation Yrotation
          JOINT leftEye
          {
            OFFSET 4.14528 8.04674 8.04672
            CHANNELS 3 Zrotation Xrotation Yrotation
            End Site
            {
              OFFSET 1 0 0
            }
          }
          JOINT rightEye
          {
            OFFSET -3.6576 8.04674 8.04672
            CHANNELS 3 Zrotation Xrotation Yrotation
            End Site
            {
              OFFSET 1 0 0
            }
          }
        }
      }
      JOINT rCollar
      {
        OFFSET -2.68224 19.2634 -4.8768
        CHANNELS 3 Zrotation Xrotation Yrotation
        JOINT rShldr
        {
          OFFSET -8.77824 -1.95073 1.46304
          CHANNELS 3 Zrotation Xrotation Yrotation
          JOINT rForeArm
          {
            OFFSET -28.1742 -1.7115 0.48768
            CHANNELS 3 Zrotation Xrotation Yrotation
            JOINT rHand
            {
              OFFSET -22.5879 0.773209 7.07136
              CHANNELS 3 Zrotation Xrotation Yrotation
              JOINT rThumb1
              {
                OFFSET -1.2192 -0.487915 3.41376
                CHANNELS 3 Zrotation Xrotation Yrotation
                JOINT rThumb2
                {
                  OFFSET -3.37035 -0.52449 3.41376
                  CHANNELS 3 Zrotation Xrotation Yrotation
                  End Site
                  {
                    OFFSET -1.78271 -1.18214 1.43049
                  }
                }
              }
              JOINT rIndex1
              {
                OFFSET -7.75947 0.938293 5.60832
                CHANNELS 3 Zrotation Xrotation Yrotation
                JOINT rIndex2
                {
                  OFFSET -2.54057 -0.884171 1.56538
                  CHANNELS 3 Zrotation Xrotation Yrotation
                  End Site
                  {
                    OFFSET -1.62519 -0.234802 1.16502
                  }
                }
              }
              JOINT rMid1
              {
                OFFSET -8.24714 1.18213 3.41376
                CHANNELS 3 Zrotation Xrotation Yrotation
                JOINT rMid2
                {
                  OFFSET -3.10165 -0.590103 1.0647
                  CHANNELS 3 Zrotation Xrotation Yrotation
                  End Site
                  {
                    OFFSET -2.48547 -0.328903 0.83742
                  }
                }
              }
              JOINT rRing1
              {
                OFFSET -8.82822 0.546677 1.51678
                CHANNELS 3 Zrotation Xrotation Yrotation
                JOINT rRing2
                {
                  OFFSET -2.60934 -0.819778 -0.0198488
                  CHANNELS 3 Zrotation Xrotation Yrotation
                  End Site
                  {
                    OFFSET -2.33842 -0.294052 0.168128
                  }
                }
              }
              JOINT rPinky1
              {
                OFFSET -8.27202 -0.0477905 -0.4584
                CHANNELS 3 Zrotation Xrotation Yrotation
                JOINT rPinky2
                {
                  OFFSET -1.82734 -0.647385 -0.700984
                  CHANNELS 3 Zrotation Xrotation Yrotation
                  End Site
                  {
                    OFFSET -1.69225 -0.51767 -0.607171
                  }
                }
              }
            }
          }
        }
      }
      JOINT lCollar
      {
        OFFSET 2.68224 19.2634 -4.8768
        CHANNELS 3 Zrotation Xrotation Yrotation
        JOINT lShldr
        {
          OFFSET 8.77824 -1.95073 1.46304
          CHANNELS 3 Zrotation Xrotation Yrotation
          JOINT lForeArm
          {
            OFFSET 28.1742 -1.7115 0.48768
            CHANNELS 3 Zrotation Xrotation Yrotation
            JOINT lHand
            {
              OFFSET 22.5879 0.773209 7.07136
              CHANNELS 3 Zrotation Xrotation Yrotation
              JOINT lThumb1
              {
                OFFSET 1.2192 -0.487915 3.41376
                CHANNELS 3 Zrotation Xrotation Yrotation
                JOINT lThumb2
                {
                  OFFSET 3.37035 -0.52449 3.41376
                  CHANNELS 3 Zrotation Xrotation Yrotation
                  End Site
                  {
                    OFFSET 1.78271 -1.18214 1.43049
                  }
                }
              }
              JOINT lIndex1
              {
                OFFSET 7.75947 0.938293 5.60832
                CHANNELS 3 Zrotation Xrotation Yrotation
                JOINT lIndex2
                {
                  OFFSET 2.54057 -0.884171 1.56538
                  CHANNELS 3 Zrotation Xrotation Yrotation
                  End Site
                  {
                    OFFSET 1.62519 -0.234802 1.16502
                  }
                }
              }
              JOINT lMid1
              {
                OFFSET 8.24714 1.18213 3.41376
                CHANNELS 3 Zrotation Xrotation Yrotation
                JOINT lMid2
                {
                  OFFSET 3.10165 -0.590103 1.0647
                  CHANNELS 3 Zrotation Xrotation Yrotation
                  End Site
                  {
                    OFFSET 2.48547 -0.328903 0.83742
                  }
                }
              }
              JOINT lRing1
              {
                OFFSET 8.82822 0.546677 1.51678
                CHANNELS 3 Zrotation Xrotation Yrotation
                JOINT lRing2
                {
                  OFFSET 2.60934 -0.819778 -0.0198488
                  CHANNELS 3 Zrotation Xrotation Yrotation
                  End Site
                  {
                    OFFSET 2.33842 -0.294052 0.168128
                  }
                }
              }
              JOINT lPinky1
              {
                OFFSET 8.27202 -0.0477905 -0.4584
                CHANNELS 3 Zrotation Xrotation Yrotation
                JOINT lPinky2
                {
                  OFFSET 1.82734 -0.647385 -0.700984
                  CHANNELS 3 Zrotation Xrotation Yrotation
                  End Site
                  {
                    OFFSET 1.69225 -0.51767 -0.607171
                  }
                }
              }
            }
          }
        }
      }
    }
  }
  JOINT rButtock
  {
    OFFSET -8.77824 4.35084 1.2192
    CHANNELS 3 Zrotation Xrotation Yrotation
    JOINT rThigh
    {
      OFFSET 0 -1.70687 -2.19456
      CHANNELS 3 Zrotation Xrotation Yrotation
      JOINT rShin
      {
        OFFSET 0 -36.8199 0.73152
        CHANNELS 3 Zrotation Xrotation Yrotation
        JOINT rFoot
        {
          OFFSET 0.73152 -45.1104 -5.12064
          CHANNELS 3 Zrotation Xrotation Yrotation
          End Site
          {
            OFFSET -1.1221 -3.69964 12.103
          }
        }
      }
    }
  }
  JOINT lButtock
  {
    OFFSET 8.77824 4.35084 1.2192
    CHANNELS 3 Zrotation Xrotation Yrotation
    JOINT lThigh
    {
      OFFSET 0 -1.70687 -2.19456
      CHANNELS 3 Zrotation Xrotation Yrotation
      JOINT lShin
      {
        OFFSET 0 -36.8199 0.73152
        CHANNELS 3 Zrotation Xrotation Yrotation
        JOINT lFoot
        {
          OFFSET -0.73152 -45.1104 -5.12064
          CHANNELS 3 Zrotation Xrotation Yrotation
          End Site
          {
            OFFSET 1.1221 -3.69964 12.103
          }
        }
      }
    }
  }
}
MOTION
Frames:	6
Frame Time:	0.00833333
73.3921 87.818 127.626 -0.8793 -5.3832 338.702 1.83133 -15.307 -2.23324 -0.623522 -1.52864 -0.39388 -1.90473 13.0763 -2.07925 7.2582 -27.6677 -2.27304 -0.0 0.0 0.0 -0.0 0.0 0.0 3.95954e-16 -1.69636e-13 1.34616e-13 15.8361 -68.6482 67.1966 -12.4454 -5.76618 22.4748 -0.0116122 -3.27071 -0.460093 -4.22497e-09 -2.64348e-09 -1.52289e-10 -7.30577e-09 -4.57723e-09 -2.65303e-10 -4.22497e-09 -2.64348e-09 -1.52296e-10 7.73091 5.47488 0.417314 -4.22497e-09 -2.64349e-09 -1.52281e-10 2.90554 0.965183 0.102902 -4.22497e-09 -2.64348e-09 -1.52287e-10 10.2786 0.731801 0.0259123 -4.22498e-09 -2.64348e-09 -1.5228e-10 2.22167 -0.733487 -0.20892 2.63746e-16 -1.69643e-13 1.3418e-13 -1.14145 -59.2081 -67.3546 12.9041 -6.10385 -23.3728 0.0111546 -2.92733 0.411831 3.81373e-09 3.15324e-09 1.16908e-09 6.58925e-09 5.46106e-09 2.02811e-09 3.81373e-09 3.15325e-09 1.16908e-09 -7.73091 5.47488 -0.417314 3.81373e-09 3.15324e-09 1.16906e-09 -2.90554 0.965183 -0.102902 3.81373e-09 3.15325e-09 1.16907e-09 -10.2786 0.731801 -0.0259123 3.81374e-09 3.15325e-09 1.16906e-09 -2.22167 -0.733487 0.20892 -2.03217e-16 0.0 -3.88251e-19 -7.94485 -0.251316 -5.17897 -0.161242 36.3314 0.790694 -1.62257 -19.4619 -7.69517 2.03217e-16 0.0 3.88251e-19 8.39227 4.05648 2.03773 0.190953 31.9457 -0.777344 -1.59115 -5.21123 -7.95828
73.4208 88.1776 127.588 -0.886 -5.4078 339.499 1.87015 -15.197 -2.15873 -0.655649 -1.63896 -0.378203 -1.92326 13.1583 -2.04861 7.43725 -28.0089 -2.14845 -0.0 0.0 0.0 -0.0 0.0 0.0 -3.57251e-14 -1.7175e-13 9.16397e-14 15.9999 -68.8638 67.362 -12.5212 -5.82091 22.6232 -0.0188339 -3.91487 -0.551065 -4.68504e-09 -2.08971e-09 -3.47208e-10 -8.10007e-09 -3.62028e-09 -6.01877e-10 -4.68504e-09 -2.08971e-09 -3.47218e-10 7.73091 5.47488 0.417314 -4.68504e-09 -2.08972e-09 -3.47199e-10 2.90554 0.965183 0.102902 -4.68504e-09 -2.08972e-09 -3.47207e-10 10.2786 0.731801 0.0259123 -4.68504e-09 -2.08972e-09 -3.47199e-10 2.22167 -0.733487 -0.20892 -3.58397e-14 -1.71754e-13 9.11925e-14 -1.10188 -59.4171 -67.2919 13.1207 -6.26636 -23.8011 0.0146727 -3.45619 0.486332 4.09726e-09 2.78275e-09 1.22097e-09 7.07983e-09 4.8187e-09 2.11614e-09 4.09725e-09 2.78275e-09 1.22098e-09 -7.73091 5.47488 -0.417314 4.09726e-09 2.78274e-09 1.22095e-09 -2.90554 0.965183 -0.102902 4.09725e-09 2.78275e-09 1.22096e-09 -10.2786 0.731801 -0.0259123 4.09726e-09 2.78276e-09 1.22096e-09 -2.22167 -0.733487 0.20892 -2.03217e-16 0.0 -3.88251e-19 -7.73989 -0.40874 -5.07688 -0.140924 35.1856 0.74895 -1.5793 -19.0221 -7.73305 2.03217e-16 0.0 3.88251e-19 8.49181 3.78676 2.00547 0.180172 31.1049 -0.770924 -1.46301 -4.64045 -7.4304
73.4491 88.5045 127.551 -0.9108 -5.4484 340.257 1.98629 -15.0699 -2.07246 -0.720979 -1.71523 -0.361291 -1.90225 13.2323 -2.02433 7.52226 -28.2853 -2.0645 -0.0 0.0 0.0 -0.0 0.0 0.0 -4.16955e-14 -6.76347e-14 5.18413e-14 17.0497 -69.0654 68.3954 -12.5742 -5.85938 22.727 -0.0230022 -4.22951 -0.595568 -2.25448e-09 -1.11382e-09 -4.21294e-10 -3.89749e-09 -1.93102e-09 -7.28253e-10 -2.25448e-09 -1.11382e-09 -4.21305e-10 7.73091 5.47488 0.417314 -2.25448e-09 -1.11382e-09 -4.21284e-10 2.90554 0.965183 0.102902 -2.25448e-09 -1.11382e-09 -4.21293e-10 10.2786 0.731801 0.0259123 -2.25448e-09 -1.11382e-09 -4.21283e-10 2.22167 -0.733487 -0.20892 -4.17533e-14 -6.76412e-14 5.14441e-14 -0.715134 -59.6303 -66.971 13.3279 -6.42486 -24.2111 0.0200223 -4.14472 0.58344 2.06361e-09 1.88951e-09 9.29898e-10 3.5655e-09 3.26987e-09 1.60748e-09 2.0636e-09 1.88951e-09 9.29905e-10 -7.73091 5.47488 -0.417314 2.06361e-09 1.8895e-09 9.29881e-10 -2.90554 0.965183 -0.102902 2.0636e-09 1.88951e-09 9.29895e-10 -10.2786 0.731801 -0.0259123 2.06361e-09 1.88951e-09 9.29889e-10 -2.22167 -0.733487 0.20892 -2.03217e-16 0.0 -3.88251e-19 -7.49793 -0.490917 -4.93034 -0.120172 34.0123 0.708664 -1.56133 -18.5406 -7.87151 2.03217e-16 0.0 3.88251e-19 8.61393 3.48354 1.93931 0.17152 30.3703 -0.764672 -1.3618 -4.19526 -6.91844
73.467 88.799 127.514 -1.0008 -5.5159 340.985 2.16221 -14.9335 -1.97779 -0.815378 -1.76362 -0.343744 -1.85708 13.3074 -2.00303 7.55061 -28.519 -2.00362 -0.0 0.0 0.0 -0.0 0.0 0.0 -3.14975e-14 1.07746e-13 7.60662e-15 18.743 -69.2311 70.0593 -12.6155 -5.88958 22.8079 -0.0240791 -4.32962 -0.609722 2.09006e-09 2.19997e-10 -4.20569e-10 3.61387e-09 3.78799e-10 -7.24414e-10 2.09006e-09 2.2e-10 -4.20581e-10 7.73091 5.47488 0.417314 2.09006e-09 2.19999e-10 -4.2056e-10 2.90554 0.965183 0.102902 2.09007e-09 2.19993e-10 -4.20567e-10 10.2786 0.731801 0.0259123 2.09006e-09 2.19992e-10 -4.20555e-10 2.22167 -0.733487 -0.20892 -3.14696e-14 1.07735e-13 7.29913e-15 -0.0708461 -59.8319 -66.4533 13.5329 -6.58416 -24.6178 0.0289686 -4.97397 0.700707 -1.51341e-09 5.71027e-10 3.98695e-10 -2.61625e-09 9.8378e-10 6.80956e-10 -1.51341e-09 5.71028e-10 3.987e-10 -7.73091 5.47488 -0.417314 -1.51341e-09 5.71023e-10 3.98684e-10 -2.90554 0.965183 -0.102902 -1.51341e-09 5.7103e-10 3.98693e-10 -10.2786 0.731801 -0.0259123 -1.51341e-09 5.71031e-10 3.98688e-10 -2.22167 -0.733487 0.20892 -2.03217e-16 0.0 -3.88251e-19 -7.22996 -0.518721 -4.74689 -0.0992136 32.8202 0.66966 -1.55785 -18.021 -8.08276 2.03217e-16 0.0 3.88251e-19 8.7551 3.14904 1.85523 0.1647 29.7286 -0.758927 -1.27806 -3.83288 -6.41602
73.469 89.0657 127.477 -1.165 -5.6119 341.687 2.37301 -14.7966 -1.8796 -0.908911 -1.79512 -0.325455 -1.81922 13.3973 -1.98064 7.55654 -28.6943 -1.94975 -0.0 0.0 0.0 -0.0 0.0 0.0 -1.49009e-14 2.80145e-13 -3.47908e-14 20.5285 -69.3381 71.8325 -12.6534 -5.9174 22.8819 -0.0239785 -4.37096 -0.615536 6.36728e-09 1.46373e-09 -3.65566e-10 1.10086e-08 2.53296e-09 -6.26938e-10 6.36728e-09 1.46373e-09 -3.65579e-10 7.73091 5.47488 0.417314 6.36728e-09 1.46374e-09 -3.65558e-10 2.90554 0.965183 0.102902 6.36729e-09 1.46373e-09 -3.65565e-10 10.2786 0.731801 0.0259123 6.36728e-09 1.46372e-09 -3.6555e-10 2.22167 -0.733487 -0.20892 -1.47872e-14 2.8013e-13 -3.5004e-14 0.672743 -59.9966 -65.8447 13.7265 -6.73643 -25.0043 0.0410187 -5.83289 0.822564 -5.01907e-09 -7.11986e-10 -1.43131e-10 -8.67464e-09 -1.24047e-09 -2.63247e-10 -5.01908e-09 -7.11986e-10 -1.43129e-10 -7.73091 5.47488 -0.417314 -5.01907e-09 -7.11986e-10 -1.43135e-10 -2.90554 0.965183 -0.102902 -5.01908e-09 -7.11982e-10 -1.43132e-10 -10.2786 0.731801 -0.0259123 -5.01908e-09 -7.11981e-10 -1.43137e-10 -2.22167 -0.733487 0.20892 -2.03217e-16 0.0 -3.88251e-19 -6.94822 -0.53741 -4.52632 -0.0785499 31.65 0.631702 -1.56167 -17.5503 -8.31198 2.03217e-16 0.0 3.88251e-19 8.90063 2.80493 1.74959 0.15909 29.1424 -0.752932 -1.20861 -3.54575 -5.92652
73.4608 89.3048 127.442 -1.3626 -5.729 342.361 2.59384 -14.6677 -1.78272 -0.97163 -1.82076 -0.306317 -1.82016 13.5159 -1.95311 7.57455 -28.7956 -1.88672 -0.0 0.0 0.0 -0.0 0.0 0.0 -1.67554e-15 3.75315e-13 -6.90777e-14 21.8357 -69.3857 73.1768 -12.6959 -5.94872 22.965 -0.0250037 -4.50929 -0.635064 8.59588e-09 2.16938e-09 -2.7682e-10 1.48613e-08 3.75524e-09 -4.72402e-10 8.59588e-09 2.16939e-09 -2.76832e-10 7.73091 5.47488 0.417314 8.59589e-09 2.1694e-09 -2.76813e-10 2.90554 0.965183 0.102902 8.59589e-09 2.16938e-09 -2.76819e-10 10.2786 0.731801 0.0259123 8.59588e-09 2.16938e-09 -2.76804e-10 2.22167 -0.733487 -0.20892 -1.50502e-15 3.75297e-13 -6.92268e-14 1.35257 -60.1011 -65.2568 13.9002 -6.87413 -25.3534 0.0538958 -6.61044 0.933222 -6.83868e-09 -1.49882e-09 -4.66069e-10 -1.18189e-08 -2.60379e-09 -8.24933e-10 -6.83869e-09 -1.49882e-09 -4.66069e-10 -7.73091 5.47488 -0.417314 -6.83868e-09 -1.49881e-09 -4.66069e-10 -2.90554 0.965183 -0.102902 -6.83868e-09 -1.49881e-09 -4.6607e-10 -10.2786 0.731801 -0.0259123 -6.83868e-09 -1.49881e-09 -4.66075e-10 -2.22167 -0.733487 0.20892 -2.03217e-16 0.0 -3.88251e-19 -6.66434 -0.592286 -4.26842 -0.0585796 30.5424 0.594466 -1.56883 -17.2157 -8.50497 2.03217e-16 0.0 3.88251e-19 9.03586 2.47291 1.61875 0.15412 28.5743 -0.745982 -1.15055 -3.32624 -5.45346
